<?xml version="1.0" encoding="UTF-8"?>
<svg xmlns="http://www.w3.org/2000/svg" width="1024" height="1024" viewBox="0 0 1024 1024" role="img" aria-label="币安广场批量发帖">
  <rect width="1024" height="1024" rx="225" ry="225" fill="#181A20"/>
  <rect x="4" y="4" width="1016" height="1016" rx="221" ry="221" fill="none" stroke="#30343E" stroke-width="4"/>
  <g transform="translate(248.041732 192.791244) scale(5.0530901171)">
    <path fill="#F0B90B" d="M38.171 53.203L63.171 28.203L88.171 53.203L100.071 41.303L63.171 4.403L26.271 41.303L38.171 53.203Z"/>
    <path fill="#F0B90B" d="M4.403 63.171L16.303 51.271L28.203 63.171L16.303 75.071L4.403 63.171Z"/>
    <path fill="#F0B90B" d="M38.171 73.139L63.171 98.139L88.171 73.139L100.071 85.039L63.171 121.939L26.271 85.039L38.171 73.139Z"/>
    <path fill="#F0B90B" d="M98.139 63.171L86.239 75.071L74.339 63.171L86.239 51.271L98.139 63.171Z"/>
    <path fill="#F0B90B" d="M71.301 63.171L63.171 71.301L55.041 63.171L63.171 55.041L71.301 63.171Z"/>
  </g>
</svg>
